<svg xmlns="http://www.w3.org/2000/svg" width="11" height="19" viewBox="0 0 11 19"><g><g><path fill="#4167b1" d="M10.685.063L8.157.059c-2.839 0-4.674 1.793-4.674 4.569v2.106H.942c-.22 0-.397.17-.397.378v3.052c0 .21.178.379.397.379h2.541v7.701c0 .21.178.378.397.378h3.316c.22 0 .397-.169.397-.378v-7.701h2.972c.22 0 .397-.17.397-.379l.001-3.052c0-.1-.042-.196-.116-.267a.408.408 0 0 0-.282-.111H7.593V4.948c0-.857.215-1.293 1.389-1.293h1.702c.22 0 .398-.171.398-.38V.441a.388.388 0 0 0-.397-.378z"/><path fill="#fff" d="M10.685.063L8.157.059c-2.839 0-4.674 1.793-4.674 4.569v2.106H.942c-.22 0-.397.17-.397.378v3.052c0 .21.178.379.397.379h2.541v7.701c0 .21.178.378.397.378h3.316c.22 0 .397-.169.397-.378v-7.701h2.972c.22 0 .397-.17.397-.379l.001-3.052c0-.1-.042-.196-.116-.267a.408.408 0 0 0-.282-.111H7.593V4.948c0-.857.215-1.293 1.389-1.293h1.702c.22 0 .398-.171.398-.38V.441a.388.388 0 0 0-.397-.378z"/></g></g></svg>