<svg xmlns="http://www.w3.org/2000/svg" width="11" height="19" viewBox="0 0 11 19"><g><g><path fill="#4167b1" d="M10.615.063L8.09.059c-2.836 0-4.67 1.793-4.67 4.569v2.106H.884c-.219 0-.396.17-.396.378v3.053c0 .209.177.378.396.378h2.539v7.7c0 .21.177.379.397.379H7.13c.22 0 .397-.17.397-.378v-7.701h2.968c.22 0 .397-.17.397-.378l.001-3.053a.366.366 0 0 0-.116-.266.405.405 0 0 0-.281-.112H7.527V4.948c0-.857.215-1.294 1.387-1.294h1.7c.22 0 .397-.17.397-.379V.442a.388.388 0 0 0-.396-.38z"/></g></g></svg>