<svg xmlns="http://www.w3.org/2000/svg" width="24" height="22" viewBox="0 0 24 22"><g><g><path fill="#252525" d="M23.173 6.872v8.25c0 3.797-3.146 6.875-7.025 6.875h-8.43c-3.879 0-7.024-3.078-7.024-6.875v-8.25c0-3.796 3.145-6.875 7.024-6.875h8.43c3.88 0 7.025 3.08 7.025 6.875zm-2.108 0c0-2.654-2.205-4.812-4.917-4.812h-8.43c-2.711 0-4.917 2.158-4.917 4.812v8.25c0 2.653 2.206 4.812 4.918 4.812h8.429c2.712 0 4.917-2.159 4.917-4.812zm-3.512 4.125c0 3.038-2.516 5.5-5.62 5.5s-5.62-2.462-5.62-5.5 2.516-5.5 5.62-5.5 5.62 2.462 5.62 5.5zm-2.107 0c0-1.896-1.577-3.437-3.513-3.437S8.421 9.1 8.421 10.997c0 1.895 1.576 3.438 3.512 3.438s3.513-1.543 3.513-3.438zm2.529-6.645a.74.74 0 0 1 .748.733.74.74 0 0 1-.748.732.74.74 0 0 1-.75-.732.74.74 0 0 1 .75-.733z"/><path fill="#fff" d="M23.173 6.872v8.25c0 3.797-3.146 6.875-7.025 6.875h-8.43c-3.879 0-7.024-3.078-7.024-6.875v-8.25c0-3.796 3.145-6.875 7.024-6.875h8.43c3.88 0 7.025 3.08 7.025 6.875zm-2.108 0c0-2.654-2.205-4.812-4.917-4.812h-8.43c-2.711 0-4.917 2.158-4.917 4.812v8.25c0 2.653 2.206 4.812 4.918 4.812h8.429c2.712 0 4.917-2.159 4.917-4.812zm-3.512 4.125c0 3.038-2.516 5.5-5.62 5.5s-5.62-2.462-5.62-5.5 2.516-5.5 5.62-5.5 5.62 2.462 5.62 5.5zm-2.107 0c0-1.896-1.577-3.437-3.513-3.437S8.421 9.1 8.421 10.997c0 1.895 1.576 3.438 3.512 3.438s3.513-1.543 3.513-3.438zm2.529-6.645a.74.74 0 0 1 .748.733.74.74 0 0 1-.748.732.74.74 0 0 1-.75-.732.74.74 0 0 1 .75-.733z"/></g></g></svg>