<svg xmlns="http://www.w3.org/2000/svg" width="23" height="22" viewBox="0 0 23 22"><g><g><path fill="#252525" d="M22.985 6.872v8.25c0 3.797-3.142 6.875-7.016 6.875h-8.42c-3.875 0-7.017-3.078-7.017-6.876V6.872c0-3.796 3.142-6.875 7.017-6.875h8.42c3.874 0 7.016 3.079 7.016 6.875zm-2.105 0c0-2.654-2.203-4.813-4.911-4.813h-8.42c-2.709 0-4.912 2.16-4.912 4.813v8.25c0 2.654 2.203 4.812 4.912 4.812h8.42c2.708 0 4.911-2.158 4.911-4.813zm-3.508 4.124c0 3.038-2.513 5.5-5.614 5.5-3.1 0-5.613-2.462-5.613-5.5 0-3.036 2.513-5.499 5.613-5.499 3.1 0 5.614 2.463 5.614 5.5zm-2.105 0c0-1.895-1.575-3.436-3.509-3.436-1.933 0-3.508 1.54-3.508 3.436s1.575 3.439 3.508 3.439c1.934 0 3.51-1.543 3.51-3.439zm2.526-6.644a.74.74 0 0 1 .748.733.74.74 0 0 1-.748.733.74.74 0 0 1-.748-.733.74.74 0 0 1 .748-.733z"/></g></g></svg>