<svg xmlns="http://www.w3.org/2000/svg" width="23" height="14" viewBox="0 0 23 14"><g><g><path fill="#4977a8" d="M22.36 11.986a1.445 1.445 0 0 0-.076-.141c-.39-.678-1.135-1.51-2.235-2.496l-.024-.022-.012-.011-.011-.012h-.012c-.5-.46-.816-.769-.948-.926-.242-.302-.296-.607-.164-.915.093-.233.445-.727 1.053-1.48.32-.4.574-.718.761-.96 1.35-1.731 1.935-2.838 1.756-3.32l-.07-.113c-.047-.067-.168-.129-.363-.187-.195-.055-.445-.066-.749-.026l-3.37.022a.451.451 0 0 0-.235.004l-.152.035-.059.028-.046.034a.526.526 0 0 0-.13.118.788.788 0 0 0-.116.198c-.367.91-.784 1.759-1.253 2.542-.288.467-.553.871-.795 1.214a5.914 5.914 0 0 1-.61.756c-.163.163-.311.29-.444.39-.132.098-.234.139-.304.124a4.324 4.324 0 0 1-.2-.046.753.753 0 0 1-.262-.276 1.214 1.214 0 0 1-.135-.44 4.663 4.663 0 0 1-.041-.458 9.214 9.214 0 0 1 .006-.542c.008-.234.012-.391.012-.474 0-.286.005-.597.017-.932.012-.335.021-.6.03-.796.007-.196.01-.403.01-.622 0-.218-.013-.389-.04-.513a1.704 1.704 0 0 0-.123-.362.613.613 0 0 0-.24-.27 1.324 1.324 0 0 0-.392-.153c-.413-.09-.94-.14-1.58-.147-1.451-.015-2.383.076-2.797.272a1.568 1.568 0 0 0-.445.337c-.14.167-.16.258-.058.272.468.067.8.23.994.486l.07.134c.055.098.11.272.165.521.054.248.09.523.105.824.039.549.039 1.02 0 1.412-.04.391-.076.696-.111.915a1.776 1.776 0 0 1-.158.53c-.07.136-.117.219-.14.25a.193.193 0 0 1-.06.055.9.9 0 0 1-.315.056c-.11 0-.242-.053-.398-.157a2.756 2.756 0 0 1-.486-.436 5.78 5.78 0 0 1-.568-.773 13.44 13.44 0 0 1-.655-1.174l-.187-.328a27.951 27.951 0 0 1-.48-.92 17.228 17.228 0 0 1-.539-1.17.748.748 0 0 0-.28-.36l-.059-.034a.82.82 0 0 0-.187-.097 1.356 1.356 0 0 0-.27-.074L.75 1.376c-.328 0-.55.071-.668.213l-.047.068A.356.356 0 0 0 0 1.838c0 .083.024.186.07.305a36.85 36.85 0 0 0 1.528 3.072c.55.987 1.028 1.781 1.434 2.383.405.602.819 1.172 1.24 1.706.422.534.7.877.837 1.027.137.151.244.264.322.34l.293.27c.187.18.462.397.825.65.363.252.765.5 1.205.745.441.245.954.444 1.54.598A5.514 5.514 0 0 0 11 13.12h1.346c.274-.023.48-.105.62-.248l.047-.057a.721.721 0 0 0 .088-.21c.028-.093.041-.196.041-.31a3.58 3.58 0 0 1 .076-.875c.058-.26.125-.455.2-.587a1.45 1.45 0 0 1 .45-.496.691.691 0 0 1 .093-.04c.188-.06.408-.002.662.175.254.177.491.396.714.656.223.26.49.552.801.875.313.323.586.564.82.722l.234.136c.156.09.359.173.609.248.249.075.467.094.655.057l2.996-.046c.296 0 .527-.046.69-.141.165-.094.262-.197.293-.31a.843.843 0 0 0 .006-.384 1.359 1.359 0 0 0-.082-.3z"/><path fill="#fff" d="M22.36 11.986a1.445 1.445 0 0 0-.076-.141c-.39-.678-1.135-1.51-2.235-2.496l-.024-.022-.012-.011-.011-.012h-.012c-.5-.46-.816-.769-.948-.926-.242-.302-.296-.607-.164-.915.093-.233.445-.727 1.053-1.48.32-.4.574-.718.761-.96 1.35-1.731 1.935-2.838 1.756-3.32l-.07-.113c-.047-.067-.168-.129-.363-.187-.195-.055-.445-.066-.749-.026l-3.37.022a.451.451 0 0 0-.235.004l-.152.035-.059.028-.046.034a.526.526 0 0 0-.13.118.788.788 0 0 0-.116.198c-.367.91-.784 1.759-1.253 2.542-.288.467-.553.871-.795 1.214a5.914 5.914 0 0 1-.61.756c-.163.163-.311.29-.444.39-.132.098-.234.139-.304.124a4.324 4.324 0 0 1-.2-.046.753.753 0 0 1-.262-.276 1.214 1.214 0 0 1-.135-.44 4.663 4.663 0 0 1-.041-.458 9.214 9.214 0 0 1 .006-.542c.008-.234.012-.391.012-.474 0-.286.005-.597.017-.932.012-.335.021-.6.03-.796.007-.196.01-.403.01-.622 0-.218-.013-.389-.04-.513a1.704 1.704 0 0 0-.123-.362.613.613 0 0 0-.24-.27 1.324 1.324 0 0 0-.392-.153c-.413-.09-.94-.14-1.58-.147-1.451-.015-2.383.076-2.797.272a1.568 1.568 0 0 0-.445.337c-.14.167-.16.258-.058.272.468.067.8.23.994.486l.07.134c.055.098.11.272.165.521.054.248.09.523.105.824.039.549.039 1.02 0 1.412-.04.391-.076.696-.111.915a1.776 1.776 0 0 1-.158.53c-.07.136-.117.219-.14.25a.193.193 0 0 1-.06.055.9.9 0 0 1-.315.056c-.11 0-.242-.053-.398-.157a2.756 2.756 0 0 1-.486-.436 5.78 5.78 0 0 1-.568-.773 13.44 13.44 0 0 1-.655-1.174l-.187-.328a27.951 27.951 0 0 1-.48-.92 17.228 17.228 0 0 1-.539-1.17.748.748 0 0 0-.28-.36l-.059-.034a.82.82 0 0 0-.187-.097 1.356 1.356 0 0 0-.27-.074L.75 1.376c-.328 0-.55.071-.668.213l-.047.068A.356.356 0 0 0 0 1.838c0 .083.024.186.07.305a36.85 36.85 0 0 0 1.528 3.072c.55.987 1.028 1.781 1.434 2.383.405.602.819 1.172 1.24 1.706.422.534.7.877.837 1.027.137.151.244.264.322.34l.293.27c.187.18.462.397.825.65.363.252.765.5 1.205.745.441.245.954.444 1.54.598A5.514 5.514 0 0 0 11 13.12h1.346c.274-.023.48-.105.62-.248l.047-.057a.721.721 0 0 0 .088-.21c.028-.093.041-.196.041-.31a3.58 3.58 0 0 1 .076-.875c.058-.26.125-.455.2-.587a1.45 1.45 0 0 1 .45-.496.691.691 0 0 1 .093-.04c.188-.06.408-.002.662.175.254.177.491.396.714.656.223.26.49.552.801.875.313.323.586.564.82.722l.234.136c.156.09.359.173.609.248.249.075.467.094.655.057l2.996-.046c.296 0 .527-.046.69-.141.165-.094.262-.197.293-.31a.843.843 0 0 0 .006-.384 1.359 1.359 0 0 0-.082-.3z"/></g></g></svg>