<svg xmlns="http://www.w3.org/2000/svg" width="23" height="14" viewBox="0 0 23 14"><g><g><path fill="#4977a8" d="M22.334 11.986a1.394 1.394 0 0 0-.076-.14c-.39-.68-1.134-1.511-2.233-2.497l-.023-.023-.012-.01-.011-.012h-.012c-.499-.46-.815-.768-.947-.927-.242-.3-.296-.605-.164-.913.093-.235.445-.727 1.053-1.48.319-.4.572-.72.76-.96 1.348-1.732 1.932-2.84 1.753-3.321l-.07-.113c-.047-.067-.168-.13-.362-.187-.195-.055-.444-.065-.748-.027l-3.367.023a.447.447 0 0 0-.234.004l-.152.035-.059.028-.047.034a.52.52 0 0 0-.128.119.782.782 0 0 0-.117.197c-.367.911-.783 1.76-1.25 2.542-.29.467-.554.87-.796 1.213a5.884 5.884 0 0 1-.608.757 4.184 4.184 0 0 1-.444.39c-.132.097-.234.14-.304.125a5.1 5.1 0 0 1-.199-.046.755.755 0 0 1-.263-.276 1.227 1.227 0 0 1-.134-.44 4.676 4.676 0 0 1-.041-.459 9.234 9.234 0 0 1 .006-.542c.008-.233.012-.392.012-.475 0-.286.005-.596.017-.93.012-.336.021-.601.03-.797.007-.196.01-.403.01-.622 0-.219-.013-.389-.04-.513a1.76 1.76 0 0 0-.122-.362.617.617 0 0 0-.24-.27 1.367 1.367 0 0 0-.392-.153c-.413-.09-.939-.14-1.578-.147-1.45-.015-2.381.076-2.794.27a1.565 1.565 0 0 0-.445.34c-.14.166-.16.257-.058.271.468.067.799.23.994.486l.07.135c.054.098.109.27.164.52.054.248.09.523.105.824.039.55.039 1.02 0 1.411a16.39 16.39 0 0 1-.111.915 1.796 1.796 0 0 1-.158.532c-.07.135-.117.218-.14.248a.21.21 0 0 1-.059.057.899.899 0 0 1-.316.056c-.109 0-.241-.053-.397-.158a2.78 2.78 0 0 1-.485-.435 5.84 5.84 0 0 1-.568-.774c-.21-.331-.428-.723-.654-1.174l-.187-.328c-.117-.21-.277-.518-.48-.92a17.33 17.33 0 0 1-.537-1.17.745.745 0 0 0-.28-.36l-.06-.035a.843.843 0 0 0-.186-.096 1.354 1.354 0 0 0-.27-.074l-3.203.023c-.327 0-.549.073-.666.215l-.047.068a.35.35 0 0 0-.035.18c0 .083.023.185.07.305a36.837 36.837 0 0 0 1.526 3.072c.55.986 1.027 1.781 1.432 2.384.405.601.818 1.17 1.24 1.705.42.534.699.877.835 1.028.137.15.244.263.322.338l.292.271c.187.18.462.397.824.65.363.252.764.5 1.204.745.44.244.953.444 1.537.599a5.485 5.485 0 0 0 1.708.186h1.344c.273-.023.48-.105.62-.25l.046-.055a.738.738 0 0 0 .088-.21 1.09 1.09 0 0 0 .041-.309 3.596 3.596 0 0 1 .076-.875c.058-.26.125-.456.199-.588a1.452 1.452 0 0 1 .45-.496.701.701 0 0 1 .093-.04c.187-.061.407-.002.661.175.253.177.49.396.713.655.223.26.49.551.8.876.313.323.586.564.82.721l.233.137c.156.09.359.173.608.248.25.075.467.095.655.056l2.992-.045c.296 0 .527-.047.69-.14.164-.095.261-.2.293-.311a.846.846 0 0 0 .006-.385 1.374 1.374 0 0 0-.083-.3z"/></g></g></svg>