<svg xmlns="http://www.w3.org/2000/svg" width="25" height="18" viewBox="0 0 25 18"><g><g><path fill="red" d="M24.627 5.587v6.816c0 2.675-2.22 4.844-4.96 4.844H5.702c-2.74 0-4.96-2.169-4.96-4.844V5.587c0-2.676 2.22-4.844 4.96-4.844h13.965c2.74 0 4.96 2.168 4.96 4.844zm-8.31 3.281L9.786 5.636c-.175-.087-.381.037-.381.227v6.274c0 .189.2.312.375.232l6.532-3.042a.253.253 0 0 0 .005-.459z"/><path fill="#fff" d="M24.627 5.587v6.816c0 2.675-2.22 4.844-4.96 4.844H5.702c-2.74 0-4.96-2.169-4.96-4.844V5.587c0-2.676 2.22-4.844 4.96-4.844h13.965c2.74 0 4.96 2.168 4.96 4.844zm-8.31 3.281L9.786 5.636c-.175-.087-.381.037-.381.227v6.274c0 .189.2.312.375.232l6.532-3.042a.253.253 0 0 0 .005-.459z"/></g></g></svg>